# xmcd CD database file
#
# Track frame offsets:
#	150
#	16875
#	41772
#	62622
#	80915
#	100640
#	123402
#	142337
#
# Disc length: 2141 seconds
#
# Revision: 3
# Processed by: cddbd v1.5.2PL0 Copyright (c) Steve Scherf et al.
# Submitted via: CDex 1.51
#
DISCID=6c085b08
DTITLE=Waylon Jennings and The 357's - Waylon Forever
DYEAR=2009
DGENRE=Country
TTITLE0=Jack of Diamonds 
TTITLE1=Outlaws
TTITLE2=Ain't Livin' Long Like This
TTITLE3=Are You Ready For The Country ¿
TTITLE4=Lonesome On'ry And Mean
TTITLE5=Waymore's Blues
TTITLE6=White Room
TTITLE7=I Found The Body
EXTD=YEAR: 2009
EXTT0=
EXTT1=
EXTT2=
EXTT3=
EXTT4=
EXTT5=
EXTT6=
EXTT7=
PLAYORDER=
